<svg width="19" height="21" viewBox="0 0 19 21" fill="none" xmlns="http://www.w3.org/2000/svg">
  <path opacity="0.4" d="M18.7301 13.3568C18.536 13.0568 18.26 12.7568 17.9023 12.5668C17.6162 12.4268 17.4322 12.1968 17.2687 11.9268C16.7475 11.0668 17.0541 9.93682 17.9228 9.42682C18.9447 8.85682 19.2718 7.58682 18.679 6.59682L17.9943 5.41682C17.4118 4.42682 16.1344 4.07682 15.1226 4.65682C14.2233 5.13682 13.0685 4.81682 12.5473 3.96682C12.3838 3.68682 12.2918 3.38682 12.3122 3.08682C12.3429 2.69682 12.2203 2.32682 12.0363 2.02682C11.6582 1.40682 10.9735 0.986816 10.2172 0.986816H8.77627C8.03024 1.00682 7.34553 1.40682 6.9674 2.02682C6.77323 2.32682 6.66081 2.69682 6.68125 3.08682C6.70169 3.38682 6.60972 3.68682 6.4462 3.96682C5.925 4.81682 4.77019 5.13682 3.88109 4.65682C2.85913 4.07682 1.59191 4.42682 0.99917 5.41682L0.314459 6.59682C-0.268057 7.58682 0.0589696 8.85682 1.07071 9.42682C1.93937 9.93682 2.24596 11.0668 1.73498 11.9268C1.56125 12.1968 1.37729 12.4268 1.09115 12.5668C0.743681 12.7568 0.437094 13.0568 0.273581 13.3568C-0.104544 13.9768 -0.0841044 14.7568 0.29402 15.4068L0.99917 16.6068C1.37729 17.2468 2.08245 17.6468 2.81825 17.6468C3.16572 17.6468 3.5745 17.5468 3.90153 17.3468C4.15702 17.1768 4.46361 17.1168 4.80085 17.1168C5.81259 17.1168 6.66081 17.9468 6.68125 18.9368C6.68125 20.0868 7.62145 20.9868 8.80692 20.9868H10.1968C11.372 20.9868 12.3122 20.0868 12.3122 18.9368C12.3429 17.9468 13.1911 17.1168 14.2029 17.1168C14.5299 17.1168 14.8365 17.1768 15.1022 17.3468C15.4292 17.5468 15.8278 17.6468 16.1855 17.6468C16.911 17.6468 17.6162 17.2468 17.9943 16.6068L18.7097 15.4068C19.0776 14.7368 19.1083 13.9768 18.7301 13.3568Z" fill="white"/>
  </svg>
  